<?xml version="1.0" standalone="no"?>
<!DOCTYPE svg PUBLIC "-//W3C//DTD SVG 20010904//EN"
 "http://www.w3.org/TR/2001/REC-SVG-20010904/DTD/svg10.dtd">
<svg version="1.0" xmlns="http://www.w3.org/2000/svg"
 width="412.000000pt" height="412.000000pt" viewBox="0 0 512.000000 512.000000"
 preserveAspectRatio="xMidYMid meet">

<g transform="translate(0.000000,512.000000) scale(0.100000,-0.100000)"
fill="#000000" stroke="none">
<path d="M611 5104 c-243 -65 -401 -303 -363 -546 40 -262 289 -448 549 -411
215 31 385 202 416 417 49 337 -276 628 -602 540z"/>
<path d="M3077 4945 c-116 -32 -218 -104 -280 -197 -134 -205 -107 -459 67
-626 194 -187 489 -185 679 4 269 267 145 721 -224 819 -66 18 -177 18 -242 0z"/>
<path d="M3828 4231 c-31 -10 -72 -28 -92 -40 -41 -26 -111 -103 -119 -130 -5
-19 -3 -19 47 -1 28 10 99 36 159 59 127 48 164 51 238 14 134 -69 160 -240
51 -346 -95 -92 -768 -304 -1197 -377 -209 -35 -385 -54 -425 -45 -40 9 -38
-6 5 -53 48 -54 92 -65 229 -57 378 22 698 88 982 201 l114 46 27 -33 c176
-206 420 -544 422 -585 1 -6 -34 -35 -76 -64 -292 -204 -549 -466 -736 -750
-176 -268 -349 -718 -334 -867 16 -151 139 -253 291 -241 69 6 108 23 161 70
46 40 69 84 94 186 86 336 260 633 521 892 164 163 373 319 453 341 60 15 207
95 264 142 64 53 118 125 138 188 14 40 16 75 13 153 -5 114 -30 188 -138 411
-121 248 -249 425 -465 640 -208 208 -294 255 -475 262 -73 2 -108 -1 -152
-16z"/>
<path d="M3925 4110 c-16 -4 -75 -26 -130 -48 -228 -91 -563 -190 -814 -242
-130 -26 -195 -36 -453 -70 -80 -10 -120 -35 -149 -93 -43 -83 -8 -192 74
-231 44 -20 127 -21 282 0 374 48 797 160 1197 316 137 53 175 82 198 153 39
119 -82 247 -205 215z"/>
<path d="M688 4045 c-71 -23 -220 -128 -318 -224 -151 -148 -250 -329 -292
-530 -30 -145 -22 -372 20 -531 37 -145 85 -267 120 -304 94 -100 257 -58 293
77 12 45 9 58 -46 214 -47 134 -71 293 -58 394 l9 74 12 -45 c62 -234 108
-361 189 -518 146 -286 254 -425 375 -482 34 -16 68 -30 75 -30 33 0 87 -352
104 -679 16 -309 -11 -698 -71 -1026 -11 -60 -20 -137 -20 -171 0 -155 138
-277 295 -261 68 7 121 35 172 90 48 52 62 93 93 267 98 560 105 1148 19 1659
-11 68 -23 130 -26 137 -4 10 28 30 108 68 472 222 1051 360 1699 406 156 11
195 20 252 57 63 42 118 145 118 223 0 90 -68 197 -155 243 -35 19 -55 22
-165 21 -148 -2 -311 -16 -549 -49 -480 -67 -962 -199 -1332 -364 -63 -28
-120 -51 -126 -51 -7 0 -38 52 -69 115 -52 105 -59 115 -88 119 -189 27 -245
43 -354 100 -190 101 -342 292 -401 506 -27 95 -27 152 0 207 65 134 236 164
343 60 36 -34 48 -56 66 -117 30 -100 53 -143 108 -202 43 -46 98 -85 108 -76
9 10 -90 350 -119 408 -83 167 -251 259 -389 215z"/>
<path d="M707 3825 c-80 -28 -125 -105 -112 -192 28 -191 185 -425 352 -526
148 -90 293 -122 509 -114 219 9 409 55 468 114 66 67 69 165 5 238 -54 61
-118 68 -265 26 -168 -46 -344 -47 -465 -1 -106 39 -198 137 -238 251 -13 35
-29 83 -38 106 -17 50 -59 88 -111 103 -47 13 -58 12 -105 -5z"/>
</g>
</svg>
